<svg xmlns="http://www.w3.org/2000/svg" width="30.089" height="30.089" viewBox="0 0 30.089 30.089">
  <g id="Group_344" data-name="Group 344" transform="translate(15.044) rotate(45)">
    <path id="Path_463" data-name="Path 463" d="M.2,1.025A.583.583,0,1,1,1.025.2L4.316,3.494,7.666.2c.529-.588,1.352.235.823.823L5.139,4.316l3.35,3.35a.582.582,0,0,1-.823.823l-3.35-3.35L1.025,8.489C.437,9.018-.386,8.2.2,7.666l3.291-3.35Z" transform="translate(6.322 6.322)" fill="#25e0b1"/>
    <path id="Path_464" data-name="Path 464" d="M10.638,0A10.638,10.638,0,1,1,0,10.638,10.635,10.635,0,0,1,10.638,0Zm0,1.175A9.463,9.463,0,1,0,20.1,10.638a9.456,9.456,0,0,0-9.463-9.463Z" transform="translate(0 0)" fill="#25e0b1"/>
  </g>
</svg>
