<svg xmlns="http://www.w3.org/2000/svg" width="13.795" height="13.795" viewBox="0 0 13.795 13.795">
  <g id="Group_322" data-name="Group 322" transform="translate(0.2 0.2)">
    <path id="Path_463" data-name="Path 463" d="M236.514,167.036a.367.367,0,1,1,.518-.518l2.072,2.072,2.109-2.072c.333-.37.851.148.518.518l-2.109,2.072,2.109,2.109a.367.367,0,0,1-.518.518l-2.109-2.109-2.072,2.109c-.37.333-.888-.185-.518-.518l2.072-2.109Z" transform="translate(-232.407 -162.41)" fill="#fff" stroke="#ac050e" stroke-width="0.4"/>
    <path id="Path_464" data-name="Path 464" d="M76.7,0A6.7,6.7,0,1,1,70,6.7,6.7,6.7,0,0,1,76.7,0Zm0,.74A5.957,5.957,0,1,0,82.655,6.7,5.954,5.954,0,0,0,76.7.74Z" transform="translate(-70)" fill="#fff" stroke="#ac050e" stroke-width="0.4"/>
  </g>
</svg>
