<svg id="Group_145" data-name="Group 145" xmlns="http://www.w3.org/2000/svg" width="18.258" height="10.82" viewBox="0 0 18.258 10.82">
  <path id="Path_452" data-name="Path 452" d="M243.719,177.439a3.723,3.723,0,1,1,2.629-1.091A3.719,3.719,0,0,1,243.719,177.439Zm0-6.762a3.047,3.047,0,1,0,2.151.892,3.043,3.043,0,0,0-2.151-.892Z" transform="translate(-234.59 -168.309)" fill="#010037"/>
  <path id="Path_453" data-name="Path 453" d="M132.7,170.338a.339.339,0,0,1-.338.338h-1.691v1.014a.338.338,0,1,1-.676,0v-1.352a.339.339,0,0,1,.338-.338h2.029A.339.339,0,0,1,132.7,170.338Z" transform="translate(-128.309 -168.309)" fill="#010037"/>
  <path id="Path_454" data-name="Path 454" d="M97.92,120H80.338a.339.339,0,0,0-.338.338v10.144a.339.339,0,0,0,.338.338H97.92a.339.339,0,0,0,.338-.338V120.338A.339.339,0,0,0,97.92,120Zm-.338,10.144H80.676v-9.467H97.582Z" transform="translate(-80 -120)" fill="#010037"/>
  <path id="Path_455" data-name="Path 455" d="M492.7,330.338v1.352a.339.339,0,0,1-.338.338h-2.029a.338.338,0,0,1,0-.676h1.691v-1.014a.338.338,0,1,1,.676,0Z" transform="translate(-476.137 -322.899)" fill="#010037"/>
  <path id="Path_456" data-name="Path 456" d="M132.7,331.691a.339.339,0,0,1-.338.338h-2.029a.339.339,0,0,1-.338-.338v-1.352a.338.338,0,1,1,.676,0v1.014h1.691A.339.339,0,0,1,132.7,331.691Z" transform="translate(-128.309 -322.899)" fill="#010037"/>
  <path id="Path_457" data-name="Path 457" d="M492.7,170.338v1.352a.338.338,0,1,1-.676,0v-1.014h-1.691a.338.338,0,0,1,0-.676h2.029A.339.339,0,0,1,492.7,170.338Z" transform="translate(-476.137 -168.309)" fill="#010037"/>
  <path id="Path_458" data-name="Path 458" d="M315.183,223.224a1.173,1.173,0,0,1-.641.322v.21a.286.286,0,0,1-.083.215.328.328,0,0,1-.433,0,.287.287,0,0,1-.083-.215v-.193h0a1.92,1.92,0,0,1-.814-.279.291.291,0,0,1-.109-.107.339.339,0,0,1-.032-.159.349.349,0,0,1,.075-.223.222.222,0,0,1,.178-.095.325.325,0,0,1,.1.017.765.765,0,0,1,.133.064,1.581,1.581,0,0,0,.351.146,1.353,1.353,0,0,0,.347.043.648.648,0,0,0,.345-.075.25.25,0,0,0,.118-.225.183.183,0,0,0-.071-.148.541.541,0,0,0-.176-.092q-.105-.034-.307-.086a4.161,4.161,0,0,1-.527-.165.907.907,0,0,1-.356-.262.719.719,0,0,1-.15-.479.839.839,0,0,1,.24-.6,1.173,1.173,0,0,1,.634-.335v-.215a.285.285,0,0,1,.086-.213.322.322,0,0,1,.431,0,.287.287,0,0,1,.083.215v.2a1.815,1.815,0,0,1,.694.27.316.316,0,0,1,.109.114.331.331,0,0,1,.032.153.342.342,0,0,1-.077.223.228.228,0,0,1-.18.095.281.281,0,0,1-.1-.017,1.18,1.18,0,0,1-.137-.064l-.133-.071a1.1,1.1,0,0,0-.221-.086.941.941,0,0,0-.251-.032.536.536,0,0,0-.313.084.261.261,0,0,0-.12.225.22.22,0,0,0,.137.206,2.094,2.094,0,0,0,.433.137,3.6,3.6,0,0,1,.521.155.87.87,0,0,1,.351.262.744.744,0,0,1,.148.485.818.818,0,0,1-.238.592Z" transform="translate(-305.108 -216.614)" fill="#010037"/>
</svg>
