<svg xmlns="http://www.w3.org/2000/svg" width="13.232" height="15.383" viewBox="0 0 13.232 15.383">
  <path id="Path_643" data-name="Path 643" d="M154.525,32.184a1.44,1.44,0,0,0-2.035-1.31l-.007,0-1.383.677V26.178a.253.253,0,0,0,0-.047V24.967a1.421,1.421,0,0,0-2.318-1.1V23.8a1.421,1.421,0,1,0-2.843,0v.069a1.421,1.421,0,0,0-2.327,1.1v1.164a.28.28,0,0,0,0,.047V26.2a1.421,1.421,0,0,0-2.327,1.1V28.46a.252.252,0,0,0,0,.041v3.881a5.382,5.382,0,0,0,8.681,4.253l.006-.006,4.008-3.328h0a1.437,1.437,0,0,0,.532-1.117Zm-.858.719,0,0-4.008,3.329h0a4.867,4.867,0,0,1-7.842-3.851v-4.4a.252.252,0,0,0,0-.041V27.3a.906.906,0,1,1,1.812,0v3.291a.258.258,0,1,0,.516,0V26.132a.276.276,0,0,0,0-.047V24.968a.905.905,0,0,1,1.81-.023.227.227,0,0,0,0,.023V29.53a.258.258,0,1,0,.516,0V26.177a.254.254,0,0,0,0-.046V23.8a.905.905,0,0,1,1.81-.019.222.222,0,0,0,0,.028v1.064c0,.03,0,.06,0,.091v1.164a.268.268,0,0,0,0,.046V28.76a.258.258,0,1,0,.516,0V25.014a.252.252,0,0,0,0-.047v-.093a.9.9,0,0,1,1.8.093v1.116a.25.25,0,0,0,0,.047v5.551c-.133-.011-.272-.017-.418-.017a4,4,0,0,0-1.676.34,3.132,3.132,0,0,0-1.471,1.412.258.258,0,0,0,.455.242,2.61,2.61,0,0,1,1.232-1.186,3.491,3.491,0,0,1,1.46-.293,4.908,4.908,0,0,1,.64.043h.008l.027,0h.022a.256.256,0,0,0,.1-.029l1.742-.853a.924.924,0,0,1,.962,1.561Z" transform="translate(-141.293 -22.382)" fill="#fff"/>
</svg>
