<svg xmlns="http://www.w3.org/2000/svg" width="20.033" height="20.02" viewBox="0 0 20.033 20.02">
  <g id="Group_368" data-name="Group 368" transform="translate(-106 -229.578)">
    <path id="Path_135" data-name="Path 135" d="M250.007,402.537a.975.975,0,1,0,.969.969A.976.976,0,0,0,250.007,402.537Zm3.112,0a.973.973,0,1,0,.985.969A.963.963,0,0,0,253.119,402.539ZM250,405.667a.973.973,0,1,0,.972.982A.962.962,0,0,0,250,405.667Zm3.12,0a.973.973,0,1,0,.981.973A.962.962,0,0,0,253.123,405.667Z" transform="translate(-135.553 -163.925)" fill="#25e0b1"/>
    <path id="Path_136" data-name="Path 136" d="M106,237.908c.071-.323.12-.652.217-.966a4.682,4.682,0,0,1,1.7-2.4q2.606-1.982,5.207-3.969a4.692,4.692,0,0,1,5.753-.021c.5.376,1,.757,1.493,1.136.05.038.1.072.181.129,0-.356-.009-.68,0-1a.772.772,0,0,1,1.026-.726.744.744,0,0,1,.531.72q.012,1.31,0,2.619a.729.729,0,0,1-.447.681.765.765,0,0,1-.842-.111c-.751-.573-1.5-1.15-2.255-1.716a7.719,7.719,0,0,0-1.137-.789,3.017,3.017,0,0,0-3.36.328c-1.749,1.316-3.485,2.649-5.223,3.979a3.115,3.115,0,0,0-1.279,2.6q0,3.225,0,6.451a3.127,3.127,0,0,0,3.182,3.182h10.538a3.126,3.126,0,0,0,3.173-3.171q0-3.245,0-6.49a3.121,3.121,0,0,0-1.192-2.523.783.783,0,1,1,.982-1.214,4.553,4.553,0,0,1,1.766,3.6c.029,2.261.022,4.522,0,6.783a4.681,4.681,0,0,1-4.146,4.551,1.242,1.242,0,0,0-.15.035H110.3a1.243,1.243,0,0,0-.15-.035,4.7,4.7,0,0,1-4.033-3.617c-.044-.2-.079-.406-.118-.609Z" fill="#25e0b1"/>
    <path id="Path_138" data-name="Path 138" d="M250.007,402.537a.975.975,0,0,1-.006,1.95.975.975,0,1,1,.006-1.95Z" transform="translate(-135.553 -163.925)" fill="#25e0b1"/>
    <path id="Path_139" data-name="Path 139" d="M309.9,402.587a.973.973,0,1,1-.967.986A.964.964,0,0,1,309.9,402.587Z" transform="translate(-192.329 -163.973)" fill="#25e0b1"/>
    <path id="Path_140" data-name="Path 140" d="M250.011,462.476a.973.973,0,1,1-.98.974A.964.964,0,0,1,250.011,462.476Z" transform="translate(-135.561 -220.734)" fill="#25e0b1"/>
    <path id="Path_141" data-name="Path 141" d="M309.9,462.476a.973.973,0,1,1-.971.983A.964.964,0,0,1,309.9,462.476Z" transform="translate(-192.33 -220.733)" fill="#25e0b1"/>
  </g>
</svg>
