<svg xmlns="http://www.w3.org/2000/svg" width="21" height="21" viewBox="0 0 21 21">
  <g id="Group_272" data-name="Group 272" transform="translate(-318 -854.98)">
    <g id="Group_149" data-name="Group 149" transform="translate(319 854.98)">
      <path id="Path_135" data-name="Path 135" d="M250.007,402.537a.975.975,0,1,0,.969.969A.976.976,0,0,0,250.007,402.537Zm3.112,0a.973.973,0,1,0,.985.969A.963.963,0,0,0,253.119,402.539ZM250,405.667a.973.973,0,1,0,.972.982A.962.962,0,0,0,250,405.667Zm3.12,0a.973.973,0,1,0,.981.973A.962.962,0,0,0,253.123,405.667Z" transform="translate(-241.569 -393.527)" fill="#fff"/>
      <path id="Path_136" data-name="Path 136" d="M106,237.891c.071-.322.12-.65.216-.964a4.672,4.672,0,0,1,1.695-2.394q2.6-1.978,5.2-3.961a4.686,4.686,0,0,1,5.744-.021c.5.375.994.756,1.491,1.134.049.038.1.072.181.129,0-.356-.009-.678,0-1a.771.771,0,0,1,1.024-.724.742.742,0,0,1,.53.719q.012,1.307,0,2.614a.727.727,0,0,1-.446.68.764.764,0,0,1-.841-.11c-.75-.572-1.5-1.148-2.251-1.713a7.706,7.706,0,0,0-1.135-.787,3.013,3.013,0,0,0-3.354.328c-1.746,1.314-3.479,2.644-5.215,3.971a3.108,3.108,0,0,0-1.277,2.592q0,3.219,0,6.438A3.121,3.121,0,0,0,110.739,248H121.26a3.12,3.12,0,0,0,3.167-3.165q0-3.239,0-6.477a3.114,3.114,0,0,0-1.19-2.518.781.781,0,1,1,.981-1.212,4.543,4.543,0,0,1,1.763,3.588c.029,2.256.022,4.513,0,6.769a4.672,4.672,0,0,1-4.139,4.542,1.238,1.238,0,0,0-.15.035h-11.4a1.236,1.236,0,0,0-.15-.035,4.693,4.693,0,0,1-4.027-3.61c-.044-.2-.079-.405-.118-.608Z" transform="translate(-106 -229.578)" fill="#fff"/>
      <path id="Path_138" data-name="Path 138" d="M250.007,402.537a.975.975,0,0,1-.006,1.95.975.975,0,1,1,.006-1.95Z" transform="translate(-241.566 -393.523)" fill="#fff"/>
      <path id="Path_139" data-name="Path 139" d="M309.9,402.587a.973.973,0,1,1-.967.986A.964.964,0,0,1,309.9,402.587Z" transform="translate(-298.348 -393.571)" fill="#fff"/>
      <path id="Path_140" data-name="Path 140" d="M250.011,462.476a.973.973,0,1,1-.98.974A.964.964,0,0,1,250.011,462.476Z" transform="translate(-241.574 -450.339)" fill="#fff"/>
      <path id="Path_141" data-name="Path 141" d="M309.9,462.476a.973.973,0,1,1-.971.983A.964.964,0,0,1,309.9,462.476Z" transform="translate(-298.349 -450.339)" fill="#fff"/>
    </g>
    <g id="Ellipse_36" data-name="Ellipse 36" transform="translate(318 869.98)" fill="#0bbf42" stroke="#000" stroke-width="1">
      <circle cx="3" cy="3" r="3" stroke="none"/>
      <circle cx="3" cy="3" r="2.5" fill="none"/>
    </g>
  </g>
</svg>
