<svg xmlns="http://www.w3.org/2000/svg" width="9.135" height="12.895" viewBox="0 0 9.135 12.895">
  <g id="Group_342" data-name="Group 342" transform="translate(0.1 0.1)">
    <path id="Path_29" data-name="Path 29" d="M15.748,2h-5.02a1.1,1.1,0,0,0-.448.1.161.161,0,0,0-.026.014,1.108,1.108,0,0,0-.31.215L8.25,4.019a1.1,1.1,0,0,0-.216.312.147.147,0,0,0-.014.025,1.105,1.105,0,0,0-.1.449v8.78A1.112,1.112,0,0,0,9.035,14.7h6.713a1.112,1.112,0,0,0,1.111-1.111V3.111A1.112,1.112,0,0,0,15.748,2Zm-5.581.55.008-.006V4.092a.159.159,0,0,1-.159.159H8.467l.007-.008Zm6.374,11.035a.794.794,0,0,1-.793.793H9.035a.794.794,0,0,1-.793-.793V4.8a.8.8,0,0,1,.039-.236h1.735a.477.477,0,0,0,.476-.476V2.357a.8.8,0,0,1,.236-.039h5.02a.794.794,0,0,1,.793.793Z" transform="translate(-7.924 -2)" fill="#fff" stroke="#fff" stroke-width="0.2"/>
    <path id="Path_30" data-name="Path 30" d="M14.564,14.964h4.5a.159.159,0,1,0,0-.317h-4.5a.159.159,0,0,0,0,.317Z" transform="translate(-12.348 -10.633)" fill="#fff" stroke="#fff" stroke-width="0.2"/>
    <path id="Path_31" data-name="Path 31" d="M19.226,19.807a.159.159,0,0,0-.159-.159h-4.5a.159.159,0,1,0,0,.317h4.5A.159.159,0,0,0,19.226,19.807Z" transform="translate(-12.348 -14.047)" fill="#fff" stroke="#fff" stroke-width="0.2"/>
    <path id="Path_711" data-name="Path 711" d="M19.226,19.807a.159.159,0,0,0-.159-.159h-4.5a.159.159,0,1,0,0,.317h4.5A.159.159,0,0,0,19.226,19.807Z" transform="translate(-12.348 -12.537)" fill="#fff" stroke="#fff" stroke-width="0.2"/>
    <path id="Path_712" data-name="Path 712" d="M19.226,19.807a.159.159,0,0,0-.159-.159h-4.5a.159.159,0,1,0,0,.317h4.5A.159.159,0,0,0,19.226,19.807Z" transform="translate(-12.348 -11.027)" fill="#fff" stroke="#fff" stroke-width="0.2"/>
    <path id="Path_32" data-name="Path 32" d="M19.979,9.964h2.785a.159.159,0,0,0,0-.317H19.979a.159.159,0,0,0,0,.317Z" transform="translate(-16.044 -7.22)" fill="#fff" stroke="#fff" stroke-width="0.2"/>
  </g>
</svg>
