<svg xmlns="http://www.w3.org/2000/svg" xmlns:xlink="http://www.w3.org/1999/xlink" width="18" height="20" viewBox="0 0 18 20">
  <defs>
    <clipPath id="clip-path">
      <rect id="Rectangle_132" data-name="Rectangle 132" width="18" height="20" transform="translate(0 0.02)" fill="#25e0b1"/>
    </clipPath>
  </defs>
  <g id="Group_141" data-name="Group 141" transform="translate(0 -0.02)">
    <g id="Group_95" data-name="Group 95" transform="translate(0 0)" clip-path="url(#clip-path)">
      <path id="Path_458" data-name="Path 458" d="M11.9,9.954A5.329,5.329,0,0,0,14.6,5.345a5.445,5.445,0,0,0-10.888,0A5.329,5.329,0,0,0,6.4,9.954,8.308,8.308,0,0,0,0,17.7c0,1.447,2.175,1.822,3,1.964a33.442,33.442,0,0,0,5.292.358c1.109,0,2.9-.054,4.595-.207a.654.654,0,1,0-.121-1.3c-1.651.148-3.393.2-4.473.2a32.082,32.082,0,0,1-5.063-.339c-1.728-.3-1.892-.671-1.893-.676,0-3.756,3.508-6.812,7.82-6.812s7.82,3.055,7.82,6.812a.666.666,0,0,0,1.332,0,8.308,8.308,0,0,0-6.4-7.744M5.04,5.345a4.113,4.113,0,0,1,8.225,0,4.113,4.113,0,0,1-8.225,0" transform="translate(0 0)" fill="#25e0b1"/>
    </g>
  </g>
</svg>
