<svg xmlns="http://www.w3.org/2000/svg" xmlns:xlink="http://www.w3.org/1999/xlink" width="30" height="33" viewBox="0 0 30 33">
  <defs>
    <clipPath id="clip-path">
      <rect id="Rectangle_132" data-name="Rectangle 132" width="30" height="33" transform="translate(-0.146 -0.476)" fill="#25e0b1" stroke="#fff" stroke-width="0.7"/>
    </clipPath>
  </defs>
  <g id="Group_194" data-name="Group 194" transform="translate(0.146 0.476)">
    <g id="Group_95" data-name="Group 95" transform="translate(0 0)" clip-path="url(#clip-path)">
      <path id="Path_458" data-name="Path 458" d="M18.548,15.513a8.305,8.305,0,0,0,4.2-7.184,8.485,8.485,0,0,0-16.967,0,8.3,8.3,0,0,0,4.2,7.184C4.2,17.131,0,21.928,0,27.58c0,2.254,3.39,2.839,4.667,3.06a52.114,52.114,0,0,0,8.247.558c1.729,0,4.518-.085,7.16-.322a1.019,1.019,0,1,0-.189-2.029c-2.573.231-5.288.313-6.971.313a50,50,0,0,1-7.889-.528c-2.693-.465-2.949-1.045-2.95-1.053,0-5.853,5.467-10.615,12.187-10.615S26.449,21.727,26.449,27.58a1.038,1.038,0,0,0,2.075,0c0-5.652-4.2-10.449-9.976-12.067M7.854,8.329a6.409,6.409,0,0,1,12.817,0,6.409,6.409,0,0,1-12.817,0" transform="translate(-0.203 0.469)" fill="#25e0b1" stroke="#fff" stroke-width="0.7"/>
    </g>
  </g>
</svg>
