<svg xmlns="http://www.w3.org/2000/svg" width="21" height="21" viewBox="0 0 21 21">
  <g id="Group_270" data-name="Group 270" transform="translate(-129 -852)">
    <path id="Union_5" data-name="Union 5" d="M3.076,15.969a10.416,10.416,0,0,1,0-14.78A10.663,10.663,0,0,1,4.5,0l.034.059a.962.962,0,0,1,.239-.03.949.949,0,0,1,.68,1.617l.007.013A8.636,8.636,0,0,0,2.878,4.636,8.579,8.579,0,1,0,19.091,8.579a8.5,8.5,0,0,0-1.17-4.3,8.593,8.593,0,0,0-2.107-2.409l.014-.023A.951.951,0,1,1,16.778.2v0a10.7,10.7,0,0,1,1.145.988A10.451,10.451,0,0,1,10.5,19.031,10.448,10.448,0,0,1,3.076,15.969Z" transform="translate(129 853.969)" fill="#25e0b1"/>
    <g id="Rectangle_191" data-name="Rectangle 191" transform="translate(138.5 852)" fill="#25e0b1" stroke="#25e0b1" stroke-width="1">
      <rect width="2" height="11" rx="1" stroke="none"/>
      <rect x="0.5" y="0.5" width="1" height="10" rx="0.5" fill="none"/>
    </g>
  </g>
</svg>
